<svg width="21" height="26" viewBox="0 0 21 26" fill="none" xmlns="http://www.w3.org/2000/svg">
<g filter="url(#filter0_d_1_108)">
<path d="M16.2404 5.81594C16.1799 7.38515 15.5862 8.88685 14.5573 10.0732C14.2526 10.4127 14.0202 10.8107 13.8743 11.2428V12.4557C13.8743 12.7504 13.7572 13.033 13.5488 13.2414C13.3405 13.4498 13.0579 13.5668 12.7632 13.5668H8.42399C8.1293 13.5668 7.84669 13.4498 7.63832 13.2414C7.42994 13.033 7.31288 12.7504 7.31288 12.4557V11.2428C7.16686 10.8107 6.93447 10.4128 6.62984 10.0732C5.60013 8.88717 5.00562 7.38544 4.94446 5.81594C4.94442 4.51218 5.39535 3.24855 6.22075 2.23934C7.04616 1.23014 8.19523 0.537506 9.47308 0.278906C10.7509 0.020306 12.0789 0.211664 13.2317 0.820524C14.3846 1.42938 15.2914 2.41826 15.7983 3.61945C16.0929 4.31499 16.2441 5.06288 16.2427 5.81828L16.2404 5.81594ZM15.1293 5.81594C15.1293 4.613 14.6514 3.45934 13.8008 2.60873C12.9502 1.75813 11.7965 1.28027 10.5936 1.28027C9.39065 1.28027 8.23698 1.75813 7.38638 2.60873C6.53577 3.45934 6.05791 4.613 6.05791 5.81594C6.05791 8.57968 8.42399 9.80307 8.42399 11.2428V12.4557H12.7632V11.2428C12.7632 9.80307 15.1293 8.57968 15.1293 5.81594ZM13.3187 14.8709C13.3189 14.944 13.3046 15.0163 13.2768 15.0839C13.2489 15.1514 13.208 15.2128 13.1564 15.2645C13.1048 15.3162 13.0435 15.3572 12.976 15.3852C12.9086 15.4132 12.8362 15.4276 12.7632 15.4276H8.42399C8.27665 15.4276 8.13534 15.3691 8.03115 15.2649C7.92697 15.1607 7.86843 15.0194 7.86843 14.8721C7.86843 14.7247 7.92697 14.5834 8.03115 14.4792C8.13534 14.3751 8.27665 14.3165 8.42399 14.3165H12.7632C12.9103 14.3165 13.0514 14.3749 13.1556 14.4788C13.2597 14.5828 13.3184 14.7238 13.3187 14.8709ZM12.5702 16.3469C12.5891 16.4017 12.5905 16.4609 12.5741 16.5165C12.5578 16.572 12.5245 16.6211 12.479 16.6569C11.9313 17.0821 11.2577 17.313 10.5643 17.313C9.87098 17.313 9.19735 17.0821 8.64972 16.6569C8.60373 16.6216 8.56996 16.5727 8.55318 16.5172C8.53639 16.4617 8.53743 16.4024 8.55616 16.3475C8.57488 16.2926 8.61034 16.245 8.65755 16.2113C8.70475 16.1776 8.76133 16.1596 8.81931 16.1598H12.3082C12.3661 16.1598 12.4225 16.1778 12.4697 16.2113C12.5169 16.2448 12.5512 16.2923 12.5702 16.3469Z" fill="#2A8787"/>
</g>
<defs>
<filter id="filter0_d_1_108" x="0.944458" y="0.166656" width="19.2982" height="25.1463" filterUnits="userSpaceOnUse" color-interpolation-filters="sRGB">
<feFlood flood-opacity="0" result="BackgroundImageFix"/>
<feColorMatrix in="SourceAlpha" type="matrix" values="0 0 0 0 0 0 0 0 0 0 0 0 0 0 0 0 0 0 127 0" result="hardAlpha"/>
<feOffset dy="4"/>
<feGaussianBlur stdDeviation="2"/>
<feComposite in2="hardAlpha" operator="out"/>
<feColorMatrix type="matrix" values="0 0 0 0 0 0 0 0 0 0 0 0 0 0 0 0 0 0 0.25 0"/>
<feBlend mode="normal" in2="BackgroundImageFix" result="effect1_dropShadow_1_108"/>
<feBlend mode="normal" in="SourceGraphic" in2="effect1_dropShadow_1_108" result="shape"/>
</filter>
</defs>
</svg>
